<svg xmlns="http://www.w3.org/2000/svg" version="1.1" xmlns:xlink="http://www.w3.org/1999/xlink" xmlns:svgjs="http://svgjs.dev/svgjs" width="1440" height="560" preserveAspectRatio="none" viewBox="0 0 1440 560"><g mask="url(&quot;#SvgjsMask1088&quot;)" fill="none"><path d="M1104.19702996962 515.2400277432331L1052.6935815679255 381.06895751795736 918.5225113426498 432.5724059196518 970.0259597443442 566.7434761449275z" fill="rgba(28, 83, 142, 0.24)" class="triangle-float1"></path><path d="M567.7998652129126 289.9479736566523L530.5562938631488 242.27837615453623 477.67368328485657 321.97853193024z" fill="rgba(28, 83, 142, 0.24)" class="triangle-float1"></path><path d="M760.0454866559807 415.5345066249072L877.4485326454158 486.07737351384026 947.9913995343488 368.6743275244052 830.5883535449137 298.1314606354721z" fill="rgba(28, 83, 142, 0.24)" class="triangle-float2"></path><path d="M437.1635612578239 273.38373209824056L382.69737988640634 340.6438646011265 449.9575123892923 395.110045972544 504.42369376070985 327.8499134696581z" fill="rgba(28, 83, 142, 0.24)" class="triangle-float3"></path><path d="M126.65256899673125 119.21509792900784L30.310663957386126 26.178801688983242-62.72563228263846 122.52070672832836 33.61627275670665 215.55700296835295z" fill="rgba(28, 83, 142, 0.24)" class="triangle-float3"></path><path d="M60.292,542.629C78.837,543.233,100.246,542.352,109.605,526.33C119.01,510.23,110.005,490.652,99.752,475.078C90.714,461.35,76.704,452.309,60.292,451.427C42.025,450.446,22.297,454.808,12.737,470.404C2.841,486.549,5.828,507.476,16.242,523.292C25.694,537.647,43.114,542.07,60.292,542.629" fill="rgba(28, 83, 142, 0.24)" class="triangle-float2"></path><path d="M427.13300470452475 405.3003084295194L523.3736577507481 516.0125151842132 634.0858645054418 419.7718621379898 537.8452114592185 309.0596553832961z" fill="rgba(28, 83, 142, 0.24)" class="triangle-float2"></path><path d="M1340.0567062032324 264.93359741589825L1374.5589589981907 158.74658199339632 1268.3719435756886 124.24432919843804 1233.8696907807305 230.43134462093997z" fill="rgba(28, 83, 142, 0.24)" class="triangle-float3"></path><path d="M1196.054,172.609C1239.293,175.328,1289.155,170.922,1310.805,133.395C1332.448,95.88,1311.192,50.586,1287.287,14.471C1266.337,-17.179,1233.988,-38.695,1196.054,-39.964C1155.662,-41.315,1113.745,-27.044,1093.598,7.991C1073.499,42.943,1082.542,86.149,1103.847,120.38C1123.852,152.523,1158.269,170.233,1196.054,172.609" fill="rgba(28, 83, 142, 0.24)" class="triangle-float3"></path><path d="M1378.2827400538172 335.0018994939182L1285.794223043135 349.65064149710145 1392.9314820570005 427.4904165046005z" fill="rgba(28, 83, 142, 0.24)" class="triangle-float3"></path><path d="M591.363,114.426C619.917,115.732,651.16,108.496,665.19,83.592C679.048,58.993,667.061,29.864,652.693,5.559C638.661,-18.177,618.935,-41.017,591.363,-41.294C563.433,-41.575,540.956,-20.366,527.858,4.303C515.622,27.347,515.343,54.731,528.377,77.333C541.423,99.956,565.275,113.233,591.363,114.426" fill="rgba(28, 83, 142, 0.24)" class="triangle-float3"></path><path d="M959.17,291.901C1005.832,291.973,1058.257,284.146,1080.284,243.01C1101.612,203.178,1076.033,157.703,1051.26,119.917C1029.553,86.807,998.682,60.778,959.17,58.274C914.73,55.457,868.726,69.528,844.368,106.804C817.799,147.465,813.097,201.363,838.698,242.64C863.207,282.157,912.67,291.83,959.17,291.901" fill="rgba(28, 83, 142, 0.24)" class="triangle-float1"></path><path d="M1237.4571470857081 415.8908981223649L1392.669522830057 374.30186738635064 1351.0804920940427 219.0894916420018 1195.868116349694 260.67852237801605z" fill="rgba(28, 83, 142, 0.24)" class="triangle-float3"></path><path d="M138.46145591440182 491.88152951012273L15.344129549955454 522.4535287715203 90.97254112140156 603.5550709296076z" fill="rgba(28, 83, 142, 0.24)" class="triangle-float2"></path><path d="M165.02,561.201C213.889,559.597,254.411,527.441,278.708,485.01C302.835,442.876,310.212,391.607,286.346,349.324C262.113,306.392,214.307,282.521,165.02,283.592C117.531,284.624,77.186,313.828,52.492,354.405C26.617,396.923,13.839,449.203,37.628,492.922C62.309,538.28,113.41,562.895,165.02,561.201" fill="rgba(28, 83, 142, 0.24)" class="triangle-float1"></path><path d="M572.878,81.644C602.106,81.347,628.715,64.052,642.133,38.084C654.58,13.994,647.962,-13.939,634.396,-37.418C620.84,-60.88,599.951,-80.63,572.878,-81.78C543.921,-83.01,516.344,-68.006,501.59,-43.059C486.573,-17.666,486.501,13.905,501.142,39.516C515.892,65.318,543.159,81.946,572.878,81.644" fill="rgba(28, 83, 142, 0.24)" class="triangle-float2"></path><path d="M649.9061268880386 456.9567925402448L745.6118156501291 479.0521917851748 767.707214895059 383.3465030230843 672.0015261329685 361.25110377815435z" fill="rgba(28, 83, 142, 0.24)" class="triangle-float3"></path><path d="M502.12327245267034 600.1351767077856L561.5101825427266 524.1233980762152 417.79905955034286 473.04892225691583z" fill="rgba(28, 83, 142, 0.24)" class="triangle-float1"></path><path d="M1101.582,239.065C1143.025,240.636,1184.927,225.205,1206.762,189.945C1229.682,152.933,1228.365,106.278,1207.456,68.094C1185.655,28.282,1146.942,-3.792,1101.582,-2.133C1058.287,-0.55,1027.684,36.619,1008.322,75.376C991.223,109.603,990.424,149.219,1009.364,182.462C1028.5,216.05,1062.953,237.601,1101.582,239.065" fill="rgba(28, 83, 142, 0.24)" class="triangle-float2"></path><path d="M664.3963104304152 268.5407017590184L607.3764709568861 259.5096463966086 622.3398076500359 349.55493328810695z" fill="rgba(28, 83, 142, 0.24)" class="triangle-float3"></path></g><defs><mask id="SvgjsMask1088"><rect width="1440" height="560" fill="#ffffff"></rect></mask><style>
                @keyframes float1 {
                    0%{transform: translate(0, 0)}
                    50%{transform: translate(-10px, 0)}
                    100%{transform: translate(0, 0)}
                }

                .triangle-float1 {
                    animation: float1 5s infinite;
                }

                @keyframes float2 {
                    0%{transform: translate(0, 0)}
                    50%{transform: translate(-5px, -5px)}
                    100%{transform: translate(0, 0)}
                }

                .triangle-float2 {
                    animation: float2 4s infinite;
                }

                @keyframes float3 {
                    0%{transform: translate(0, 0)}
                    50%{transform: translate(0, -10px)}
                    100%{transform: translate(0, 0)}
                }

                .triangle-float3 {
                    animation: float3 6s infinite;
                }
            </style></defs></svg>