<svg xmlns="http://www.w3.org/2000/svg" version="1.1" xmlns:xlink="http://www.w3.org/1999/xlink" xmlns:svgjs="http://svgjs.dev/svgjs" width="1440" height="560" preserveAspectRatio="none" viewBox="0 0 1440 560"><g mask="url(&quot;#SvgjsMask1020&quot;)" fill="none"><path d="M86.382,208.01C126.242,207.366,150.863,169.642,170.934,135.198C191.207,100.408,211.291,60.685,193.195,24.714C173.712,-14.014,129.714,-34.23,86.382,-32.874C45.247,-31.587,9.635,-5.408,-9.446,31.056C-27.194,64.973,-21.27,104.349,-3.041,138.01C16.279,173.687,45.815,208.666,86.382,208.01" fill="rgba(28, 83, 142, 0.4)" class="triangle-float2"></path><path d="M-73.98799152640353 78.92039007420829L63.62955191414707 175.28123138118403 22.37284978057221-58.69715336634232z" fill="rgba(28, 83, 142, 0.4)" class="triangle-float2"></path><path d="M27.722,90.169C48.005,89.063,61.113,70.393,69.955,52.105C77.508,36.484,78.026,18.711,69.606,3.54C60.916,-12.117,45.573,-22.58,27.722,-23.99C6.841,-25.639,-16.291,-21.858,-27.44,-4.126C-39.126,14.461,-34.405,38.239,-23.319,57.19C-12.357,75.929,6.044,91.351,27.722,90.169" fill="rgba(28, 83, 142, 0.4)" class="triangle-float3"></path><path d="M1344.436,62.709C1362.268,63.487,1381.594,58.498,1390.309,42.921C1398.885,27.593,1392.511,8.911,1382.682,-5.645C1374.111,-18.338,1359.751,-25.213,1344.436,-25.012C1329.493,-24.816,1315.71,-17.398,1307.891,-4.663C1299.674,8.72,1297.523,25.394,1305.011,39.198C1312.831,53.614,1328.052,61.994,1344.436,62.709" fill="rgba(28, 83, 142, 0.4)" class="triangle-float2"></path><path d="M1468.286,292.307C1520.993,293.298,1565.828,257.472,1591.813,211.605C1617.397,166.446,1623.665,110.479,1596.272,66.393C1570.109,24.287,1517.858,12.87,1468.286,12.803C1418.564,12.736,1365.146,23.329,1339.701,66.047C1313.805,109.523,1327.545,163.111,1352.548,207.107C1377.917,251.747,1416.95,291.342,1468.286,292.307" fill="rgba(28, 83, 142, 0.4)" class="triangle-float1"></path><path d="M1284.269268177793 68.59642882312065L1338.567945645383 166.55383602273298 1458.3547177110065 36.12711622154221z" fill="rgba(28, 83, 142, 0.4)" class="triangle-float2"></path><path d="M44.628,565.869C68.66,564.93,84.323,543.309,95.869,522.212C106.819,502.204,114.44,478.658,103.227,458.797C91.869,438.68,67.714,430.596,44.628,431.452C23.081,432.251,4.431,444.533,-6.895,462.881C-18.91,482.345,-24.283,506.049,-14.049,526.506C-2.754,549.082,19.403,566.854,44.628,565.869" fill="rgba(28, 83, 142, 0.4)" class="triangle-float1"></path><path d="M24.07811995627091 591.7046446066848L169.24214864166802 465.7581643583813 11.373788349635419 408.29878027966896z" fill="rgba(28, 83, 142, 0.4)" class="triangle-float1"></path><path d="M-28.843635832114828 402.88729218832236L-43.485800613721395 570.2480014677355 138.5170734472984 417.52945696992896z" fill="rgba(28, 83, 142, 0.4)" class="triangle-float2"></path><path d="M1475.072,773.377C1534.96,770.631,1579.416,724.539,1609.163,672.489C1638.626,620.936,1657.346,558.397,1627.158,507.265C1597.334,456.749,1533.728,444.466,1475.072,445.367C1418.354,446.238,1361.911,464.338,1330.869,511.816C1296.749,564.002,1287.74,631.246,1317.843,685.848C1348.883,742.149,1410.849,776.322,1475.072,773.377" fill="rgba(28, 83, 142, 0.4)" class="triangle-float3"></path><path d="M1415.653,632.75C1450.936,633.203,1484.654,616.233,1502.565,585.831C1520.741,554.979,1520.208,516.636,1502.339,485.605C1484.435,454.514,1451.529,435.272,1415.653,434.907C1379.125,434.535,1343.676,451.919,1325.854,483.807C1308.413,515.013,1314.066,553.032,1332.524,583.647C1350.334,613.187,1381.163,632.307,1415.653,632.75" fill="rgba(28, 83, 142, 0.4)" class="triangle-float1"></path><path d="M1378.871,584.787C1407.773,584.976,1429.432,561.435,1443.579,536.231C1457.364,511.672,1465.389,481.406,1450.213,457.682C1435.805,435.159,1405.608,435.227,1378.871,435.075C1351.735,434.92,1320.582,433.908,1306.108,456.862C1291.034,480.767,1301.642,510.828,1315.615,535.393C1329.791,560.316,1350.199,584.599,1378.871,584.787" fill="rgba(28, 83, 142, 0.4)" class="triangle-float3"></path></g><defs><mask id="SvgjsMask1020"><rect width="1440" height="560" fill="#ffffff"></rect></mask><style>
                @keyframes float1 {
                    0%{transform: translate(0, 0)}
                    50%{transform: translate(-10px, 0)}
                    100%{transform: translate(0, 0)}
                }

                .triangle-float1 {
                    animation: float1 5s infinite;
                }

                @keyframes float2 {
                    0%{transform: translate(0, 0)}
                    50%{transform: translate(-5px, -5px)}
                    100%{transform: translate(0, 0)}
                }

                .triangle-float2 {
                    animation: float2 4s infinite;
                }

                @keyframes float3 {
                    0%{transform: translate(0, 0)}
                    50%{transform: translate(0, -10px)}
                    100%{transform: translate(0, 0)}
                }

                .triangle-float3 {
                    animation: float3 6s infinite;
                }
            </style></defs></svg>