<svg xmlns="http://www.w3.org/2000/svg" version="1.1" xmlns:xlink="http://www.w3.org/1999/xlink" xmlns:svgjs="http://svgjs.dev/svgjs" width="1440" height="560" preserveAspectRatio="none" viewBox="0 0 1440 560"><g mask="url(&quot;#SvgjsMask1010&quot;)" fill="none"><rect width="1440" height="560" x="0" y="0" fill="url(&quot;#SvgjsLinearGradient1011&quot;)"></rect><path d="M64.017,153.686C94.561,153.946,118.279,130.613,133.821,104.318C149.71,77.436,158.376,45.527,144.476,17.564C129.095,-13.376,98.49,-38.429,64.017,-36.1C32.007,-33.938,14.455,-1.551,0.414,27.296C-11.463,51.699,-15.957,78.904,-3.757,103.147C9.82,130.127,33.814,153.429,64.017,153.686" fill="rgba(28, 83, 142, 0.4)" class="triangle-float1"></path><path d="M118.699,255.537C166.59,257.341,208.902,226.112,232.39,184.338C255.4,143.414,256.758,93.195,232.621,52.926C209.119,13.716,164.397,-6.556,118.699,-5.336C75.119,-4.172,35.837,20.53,14.849,58.741C-5.382,95.575,-0.678,139.132,18.935,176.298C40.178,216.554,73.214,253.824,118.699,255.537" fill="rgba(28, 83, 142, 0.4)" class="triangle-float3"></path><path d="M135.786,301.373C191.983,300.234,234.93,257.927,263.539,209.544C292.808,160.046,312.197,100.321,284.452,49.953C255.953,-1.783,194.775,-25.399,135.786,-22.375C81.755,-19.605,38.429,17.105,11.37,63.954C-15.698,110.819,-26.385,166.974,-1.264,214.911C25.608,266.19,77.905,302.546,135.786,301.373" fill="rgba(28, 83, 142, 0.4)" class="triangle-float2"></path><path d="M1340.792,49.271C1354.873,49.422,1369.593,45.673,1377.001,33.697C1384.742,21.183,1383.569,5.081,1375.897,-7.476C1368.541,-19.516,1354.897,-25.248,1340.792,-25.566C1326.016,-25.9,1310.399,-21.82,1302.829,-9.126C1295.112,3.814,1297.695,20.301,1305.906,32.933C1313.407,44.472,1327.03,49.123,1340.792,49.271" fill="rgba(28, 83, 142, 0.4)" class="triangle-float1"></path><path d="M1364.594908857009 147.29377606848854L1490.817848982881 2.3700702882000257 1326.4890520596016-32.559093769183505z" fill="rgba(28, 83, 142, 0.4)" class="triangle-float1"></path><path d="M1513.1088962763085 28.557056926496294L1372.2122408614773-62.942300956028255 1421.609538393784 169.45371234132753z" fill="rgba(28, 83, 142, 0.4)" class="triangle-float3"></path><path d="M124.3013445467902 430.2448969766191L19.740336779103615 390.10768662754543 11.815025139336484 567.0178034536121z" fill="rgba(28, 83, 142, 0.4)" class="triangle-float1"></path><path d="M114.854,678.704C156.052,678.828,192.618,655.302,214.251,620.241C237.147,583.132,246.576,537.132,225.888,498.748C204.255,458.611,160.447,435.309,114.854,435.821C70.121,436.323,29.163,461.75,8.056,501.194C-11.961,538.601,-5.387,583.294,16.485,619.648C37.617,654.772,73.863,678.581,114.854,678.704" fill="rgba(28, 83, 142, 0.4)" class="triangle-float3"></path><path d="M137.6311726663436 549.2488978896581L35.94395975658321 386.1697090219299-45.50405644480142 533.1058198213484z" fill="rgba(28, 83, 142, 0.4)" class="triangle-float2"></path><path d="M1350.5523247091053 591.1341731397388L1497.8923133724545 467.7403367791036 1341.0508017209247 407.53452125549313z" fill="rgba(28, 83, 142, 0.4)" class="triangle-float2"></path><path d="M1357.308,538.321C1377.98,538.268,1394.4,522.58,1404.151,504.353C1413.305,487.243,1414.713,466.563,1404.537,450.04C1394.795,434.222,1375.878,427.764,1357.308,428.291C1339.73,428.79,1323.766,437.647,1314.506,452.596C1304.687,468.447,1301.715,487.914,1310.044,504.596C1319.311,523.155,1336.564,538.375,1357.308,538.321" fill="rgba(28, 83, 142, 0.4)" class="triangle-float1"></path><path d="M1323.782324942306 584.4904994364856L1431.9660174866817 613.478232487968 1421.3557707917173 436.70882714566335z" fill="rgba(28, 83, 142, 0.4)" class="triangle-float1"></path></g><defs><mask id="SvgjsMask1010"><rect width="1440" height="560" fill="#ffffff"></rect></mask><linearGradient x1="15.28%" y1="139.29%" x2="84.72%" y2="-39.29%" gradientUnits="userSpaceOnUse" id="SvgjsLinearGradient1011"><stop stop-color="#0e2a47" offset="0"></stop><stop stop-color="rgba(0, 158, 144, 1)" offset="1"></stop></linearGradient><style>
                @keyframes float1 {
                    0%{transform: translate(0, 0)}
                    50%{transform: translate(-10px, 0)}
                    100%{transform: translate(0, 0)}
                }

                .triangle-float1 {
                    animation: float1 5s infinite;
                }

                @keyframes float2 {
                    0%{transform: translate(0, 0)}
                    50%{transform: translate(-5px, -5px)}
                    100%{transform: translate(0, 0)}
                }

                .triangle-float2 {
                    animation: float2 4s infinite;
                }

                @keyframes float3 {
                    0%{transform: translate(0, 0)}
                    50%{transform: translate(0, -10px)}
                    100%{transform: translate(0, 0)}
                }

                .triangle-float3 {
                    animation: float3 6s infinite;
                }
            </style></defs></svg>