<svg xmlns="http://www.w3.org/2000/svg" version="1.1" xmlns:xlink="http://www.w3.org/1999/xlink" xmlns:svgjs="http://svgjs.dev/svgjs" width="1440" height="560" preserveAspectRatio="none" viewBox="0 0 1440 560"><g mask="url(&quot;#SvgjsMask1443&quot;)" fill="none"><circle r="76.17727083420807" cx="163.93" cy="147.95" fill="rgba(211, 183, 20, 0.56)"></circle><path d="M862.42 411.9L874.89 408.99 880.47 420.52 892.94 417.62 898.51 429.15 910.98 426.24 916.55 437.77" stroke="rgba(211, 183, 20, 0.56)" stroke-width="1" stroke-dasharray="4, 4"></path><rect width="182.39999999999998" height="182.39999999999998" clip-path="url(&quot;#SvgjsClipPath1444&quot;)" x="1096.84" y="335.37" fill="url(&quot;#SvgjsPattern1445&quot;)" transform="rotate(276.15, 1188.04, 426.57)"></rect><path d="M276.44 196.66 L120.9 241.57999999999998L291.9908930926763 312.44089309267633z" fill="rgba(211, 183, 20, 0.56)"></path><rect width="336" height="336" clip-path="url(&quot;#SvgjsClipPath1446&quot;)" x="507.71" y="180.21" fill="url(&quot;#SvgjsPattern1447&quot;)" transform="rotate(276.82, 675.71, 348.21)"></rect><rect width="84" height="84" clip-path="url(&quot;#SvgjsClipPath1448&quot;)" x="455.71" y="485.07" fill="url(&quot;#SvgjsPattern1449&quot;)" transform="rotate(18.01, 497.71, 527.07)"></rect><path d="M1399.94 362.91999999999996 L1393.96 357.90999999999997L1392.3142915029825 365.0507084970175z" fill="rgba(211, 183, 20, 0.56)"></path><path d="M483.34 429.89L470.84 432.68 465.38 421.09 452.88 423.88 447.42 412.3 434.92 415.08 429.46 403.5M486.86 422.7L474.36 425.49 468.9 413.91 456.4 416.7 450.94 405.11 438.44 407.9 432.98 396.32M490.38 415.52L477.88 418.31 472.42 406.72 459.92 409.51 454.46 397.93 441.96 400.71 436.49 389.13" stroke="rgba(211, 183, 20, 0.56)" stroke-width="1" stroke-dasharray="3, 3"></path><rect width="362.88" height="362.88" clip-path="url(&quot;#SvgjsClipPath1450&quot;)" x="1086.62" y="-80.92" fill="url(&quot;#SvgjsPattern1451&quot;)" transform="rotate(118.58, 1268.06, 100.52)"></rect><rect width="212.16" height="212.16" clip-path="url(&quot;#SvgjsClipPath1452&quot;)" x="948.97" y="-58.29" fill="url(&quot;#SvgjsPattern1453&quot;)" transform="rotate(246.77, 1055.05, 47.79)"></rect><rect width="60.2" height="60.2" clip-path="url(&quot;#SvgjsClipPath1454&quot;)" x="1276.85" y="-13.16" fill="url(&quot;#SvgjsPattern1455&quot;)" transform="rotate(58.01, 1306.95, 16.94)"></rect><rect width="130" height="130" clip-path="url(&quot;#SvgjsClipPath1456&quot;)" x="414.19" y="180.3" fill="url(&quot;#SvgjsPattern1457&quot;)" transform="rotate(269.44, 479.19, 245.3)"></rect></g><defs><mask id="SvgjsMask1443"><rect width="1440" height="560" fill="#ffffff"></rect></mask><pattern x="0" y="0" width="9.12" height="9.12" patternUnits="userSpaceOnUse" id="SvgjsPattern1445"><path d="M0 9.12L4.56 0L9.12 9.12" stroke="rgba(211, 183, 20, 0.56)" fill="none"></path></pattern><clipPath id="SvgjsClipPath1444"><circle r="45.599999999999994" cx="1188.04" cy="426.57"></circle></clipPath><pattern x="0" y="0" width="6" height="6" patternUnits="userSpaceOnUse" id="SvgjsPattern1447"><path d="M0 6L3 0L6 6" stroke="rgba(211, 183, 20, 0.56)" fill="none"></path></pattern><clipPath id="SvgjsClipPath1446"><circle r="84" cx="675.71" cy="348.21"></circle></clipPath><pattern x="0" y="0" width="84" height="6" patternUnits="userSpaceOnUse" id="SvgjsPattern1449"><rect width="84" height="3" x="0" y="0" fill="rgba(211, 183, 20, 0.56)"></rect><rect width="84" height="3" x="0" y="3" fill="rgba(0, 0, 0, 0)"></rect></pattern><clipPath id="SvgjsClipPath1448"><circle r="21" cx="497.71" cy="527.07"></circle></clipPath><pattern x="0" y="0" width="362.88" height="11.34" patternUnits="userSpaceOnUse" id="SvgjsPattern1451"><rect width="362.88" height="5.67" x="0" y="0" fill="rgba(211, 183, 20, 0.56)"></rect><rect width="362.88" height="5.67" x="0" y="5.67" fill="rgba(0, 0, 0, 0)"></rect></pattern><clipPath id="SvgjsClipPath1450"><circle r="90.72" cx="1268.06" cy="100.52"></circle></clipPath><pattern x="0" y="0" width="212.16" height="8.84" patternUnits="userSpaceOnUse" id="SvgjsPattern1453"><rect width="212.16" height="4.42" x="0" y="0" fill="rgba(211, 183, 20, 0.56)"></rect><rect width="212.16" height="4.42" x="0" y="4.42" fill="rgba(0, 0, 0, 0)"></rect></pattern><clipPath id="SvgjsClipPath1452"><circle r="53.04" cx="1055.05" cy="47.79"></circle></clipPath><pattern x="0" y="0" width="6.02" height="6.02" patternUnits="userSpaceOnUse" id="SvgjsPattern1455"><path d="M3.01 1L3.01 5.02M1 3.01L5.02 3.01" stroke="rgba(211, 183, 20, 0.56)" fill="none" stroke-width="1.08"></path></pattern><clipPath id="SvgjsClipPath1454"><circle r="15.05" cx="1306.95" cy="16.94"></circle></clipPath><pattern x="0" y="0" width="13" height="13" patternUnits="userSpaceOnUse" id="SvgjsPattern1457"><path d="M0 13L6.5 0L13 13" stroke="rgba(211, 183, 20, 0.56)" fill="none"></path></pattern><clipPath id="SvgjsClipPath1456"><circle r="32.5" cx="479.19" cy="245.3"></circle></clipPath></defs></svg>